<svg xmlns="http://www.w3.org/2000/svg" xmlns:xlink="http://www.w3.org/1999/xlink" width="500" zoomAndPan="magnify" viewBox="0 0 375 374.999991" height="500" preserveAspectRatio="xMidYMid meet" version="1.0"><rect x="-37.5" width="450" fill="#ffffff" y="-37.499999" height="449.999989" fill-opacity="1"/><rect x="-37.5" width="450" fill="#ffffff" y="-37.499999" height="449.999989" fill-opacity="1"/><path fill="#181818" d="M 113.214844 90.464844 C 113.484375 90.503906 113.738281 89.300781 113.886719 91.160156 C 114.207031 97.011719 113.363281 101.726562 113.683594 107.578125 C 113.832031 107.714844 113.980469 107.855469 114.125 108 C 113.992188 112.53125 113.804688 117.257812 113.65625 122.074219 C 113.824219 130.953125 114.03125 139.78125 114.28125 148.574219 C 114.4375 148.347656 114.578125 148.234375 114.648438 149.109375 C 114.808594 152.761719 114.714844 157.832031 114.730469 163.082031 C 114.765625 163.859375 114.800781 164.632812 114.832031 165.394531 C 114.933594 165.992188 115.089844 166.144531 115.183594 166.238281 C 115.195312 168.613281 115.179688 170.722656 115.15625 172.679688 C 116.3125 198.4375 117.625 224.589844 118.949219 252.933594 C 119.417969 258.929688 119.890625 264.921875 120.140625 270.699219 C 120.40625 279.257812 120.25 290.183594 120.300781 298.535156 C 121.816406 297.234375 122.808594 317.570312 124.3125 313.496094 C 124.34375 319.054688 124.390625 327.414062 124.832031 327.839844 C 126.148438 329.113281 127.699219 333.382812 128.65625 348.148438 C 128.90625 353.929688 128.464844 362.816406 128.75 364.855469 C 129.207031 368.058594 129.578125 357.347656 130.039062 360.550781 C 130.003906 317.566406 128.957031 276.179688 128.460938 232.90625 C 127.605469 218.183594 126.148438 118.828125 126.152344 93.304688 C 126.132812 92.53125 126.121094 91.757812 126.105469 90.988281 C 126.027344 77.066406 125.710938 60.160156 124.988281 48.382812 C 124.566406 42.984375 124.0625 37.492188 123.574219 32.027344 C 123.351562 34.570312 123.125 36.933594 122.898438 38.976562 C 122.867188 33.40625 122.835938 27.835938 122.53125 25.707031 C 121.738281 13.851562 121.046875 20.582031 120.058594 25.15625 C 119.636719 28.4375 118.886719 24.011719 118.480469 29.15625 C 118.457031 25.453125 118.449219 23.597656 118.425781 19.878906 C 117.988281 19.453125 118.78125 31.300781 118.039062 28.730469 C 118.164062 25.160156 117.851562 21.167969 117.832031 17.460938 C 117.253906 18.75 117.757812 30.308594 117.171875 29.746094 C 117.015625 27.746094 117.839844 19.316406 117.109375 18.609375 C 116.960938 18.464844 116.984375 22.175781 116.996094 24.035156 C 116.640625 12.617188 115.875 6.332031 115.207031 16.765625 C 115.1875 13.148438 115.433594 8.023438 115.289062 4.199219 C 115.285156 4.203125 115.285156 4.21875 115.28125 4.230469 C 115.277344 6.136719 115.164062 9.433594 115.175781 11.199219 C 115.164062 9.027344 115.152344 6.851562 115.136719 4.679688 C 115.039062 5.023438 114.945312 5.414062 114.851562 5.820312 C 114.78125 7.445312 114.730469 9.078125 114.734375 10.769531 C 114.730469 9.332031 114.722656 7.886719 114.710938 6.441406 C 114.488281 7.523438 114.273438 8.769531 114.078125 10.132812 C 113.671875 15.285156 113.042969 20.214844 113.0625 22.996094 C 112.976562 45.460938 113 68.023438 113.214844 90.464844 " fill-opacity="1" fill-rule="nonzero"/><path fill="#181818" d="M 249.820312 88.472656 C 250.09375 88.511719 250.355469 87.28125 250.488281 89.191406 C 250.777344 95.199219 249.902344 100.03125 250.191406 106.039062 C 250.339844 106.179688 250.484375 106.328125 250.628906 106.472656 C 250.472656 111.121094 250.253906 115.96875 250.082031 120.917969 C 250.195312 130.027344 250.351562 139.09375 250.550781 148.113281 C 250.707031 147.878906 250.851562 147.765625 250.914062 148.664062 C 251.054688 152.417969 250.929688 157.617188 250.914062 163.003906 C 250.945312 163.804688 250.972656 164.597656 251.003906 165.378906 C 251.101562 165.992188 251.253906 166.148438 251.347656 166.246094 C 251.347656 168.683594 251.320312 170.847656 251.285156 172.855469 C 252.289062 199.296875 253.449219 226.140625 254.605469 255.242188 C 255.042969 261.394531 255.476562 267.550781 255.695312 273.480469 C 255.914062 282.265625 255.691406 293.476562 255.691406 302.046875 C 257.214844 300.726562 258.089844 321.605469 259.617188 317.425781 C 259.617188 323.132812 259.613281 331.710938 260.050781 332.148438 C 261.359375 333.46875 262.886719 337.855469 263.757812 353.015625 C 263.972656 358.949219 263.476562 368.066406 263.753906 370.160156 C 264.191406 373.453125 264.628906 362.460938 265.066406 365.75 C 265.285156 321.640625 264.480469 279.164062 264.238281 234.75 C 263.46875 219.632812 262.589844 117.660156 262.742188 91.472656 C 262.730469 90.671875 262.722656 89.882812 262.710938 89.09375 C 262.710938 74.804688 262.496094 57.449219 261.84375 45.359375 C 261.453125 39.816406 260.976562 34.179688 260.523438 28.566406 C 260.285156 31.179688 260.050781 33.597656 259.808594 35.695312 C 259.808594 29.976562 259.808594 24.265625 259.523438 22.070312 C 258.792969 9.90625 258.066406 16.804688 257.046875 21.492188 C 256.609375 24.859375 255.882812 20.3125 255.445312 25.585938 C 255.445312 21.789062 255.445312 19.878906 255.449219 16.0625 C 255.011719 15.628906 255.734375 27.792969 255.007812 25.15625 C 255.152344 21.488281 254.867188 17.386719 254.867188 13.585938 C 254.285156 14.902344 254.71875 26.765625 254.136719 26.1875 C 253.988281 24.132812 254.867188 15.484375 254.136719 14.753906 C 253.992188 14.609375 253.992188 18.417969 253.992188 20.320312 C 253.703125 8.601562 252.976562 2.148438 252.25 12.851562 C 252.25 9.140625 252.523438 3.886719 252.402344 -0.0429688 C 252.398438 -0.0390625 252.394531 -0.0195312 252.390625 -0.015625 C 252.378906 1.949219 252.25 5.328125 252.25 7.140625 C 252.25 4.914062 252.25 2.679688 252.25 0.449219 C 252.148438 0.800781 252.050781 1.199219 251.953125 1.621094 C 251.875 3.285156 251.8125 4.957031 251.8125 6.699219 C 251.8125 5.222656 251.8125 3.742188 251.8125 2.253906 C 251.582031 3.363281 251.363281 4.640625 251.15625 6.042969 C 250.71875 11.320312 250.066406 16.378906 250.066406 19.230469 C 249.851562 42.289062 249.738281 65.4375 249.820312 88.472656 " fill-opacity="1" fill-rule="nonzero"/><path fill="#181818" d="M 85.585938 126.242188 C 85.625 125.972656 84.351562 125.710938 86.328125 125.578125 C 92.542969 125.308594 97.535156 126.195312 103.75 125.921875 C 103.890625 125.773438 104.046875 125.628906 104.195312 125.484375 C 109.003906 125.65625 114.019531 125.886719 119.132812 126.078125 C 128.554688 125.988281 137.925781 125.859375 147.257812 125.683594 C 147.015625 125.527344 146.898438 125.382812 147.828125 125.320312 C 151.707031 125.195312 157.085938 125.332031 162.65625 125.363281 C 163.480469 125.335938 164.300781 125.308594 165.109375 125.277344 C 165.746094 125.1875 165.90625 125.03125 166.011719 124.9375 C 168.527344 124.945312 170.769531 124.980469 172.839844 125.023438 C 200.1875 124.089844 227.949219 123.007812 258.042969 121.933594 C 264.40625 121.515625 270.769531 121.097656 276.902344 120.898438 C 285.988281 120.703125 297.582031 120.957031 306.441406 120.984375 C 305.082031 119.449219 326.671875 118.640625 322.359375 117.101562 C 328.257812 117.117188 337.128906 117.140625 337.582031 116.707031 C 338.949219 115.402344 343.492188 113.886719 359.171875 113.0625 C 365.308594 112.859375 374.734375 113.378906 376.902344 113.113281 C 380.304688 112.683594 368.941406 112.214844 372.34375 111.789062 C 326.730469 111.441406 282.808594 112.128906 236.882812 112.242188 C 221.25 112.96875 115.808594 113.558594 88.726562 113.328125 C 87.898438 113.339844 87.082031 113.34375 86.261719 113.355469 C 71.488281 113.308594 53.542969 113.476562 41.039062 114.097656 C 35.304688 114.472656 29.476562 114.929688 23.671875 115.371094 C 26.371094 115.613281 28.871094 115.859375 31.042969 116.105469 C 25.128906 116.085938 19.222656 116.070312 16.949219 116.355469 C 4.371094 117.042969 11.5 117.792969 16.34375 118.828125 C 19.828125 119.273438 15.121094 119.988281 20.578125 120.4375 C 16.644531 120.429688 14.675781 120.421875 10.726562 120.410156 C 10.277344 120.84375 22.859375 120.15625 20.125 120.875 C 16.335938 120.71875 12.09375 120.996094 8.160156 120.984375 C 9.523438 121.574219 21.792969 121.171875 21.191406 121.75 C 19.066406 121.890625 10.128906 120.992188 9.367188 121.714844 C 9.21875 121.859375 13.15625 121.875 15.128906 121.878906 C 3.007812 122.132812 -3.667969 122.839844 7.394531 123.601562 C 3.554688 123.589844 -1.875 123.300781 -5.9375 123.410156 C -5.933594 123.414062 -5.914062 123.417969 -5.90625 123.421875 C -3.878906 123.4375 -0.382812 123.582031 1.488281 123.582031 C -0.8125 123.582031 -3.121094 123.574219 -5.425781 123.566406 C -5.0625 123.667969 -4.652344 123.765625 -4.21875 123.863281 C -2.496094 123.949219 -0.769531 124.011719 1.03125 124.019531 C -0.496094 124.015625 -2.027344 124.011719 -3.5625 124.007812 C -2.417969 124.238281 -1.097656 124.464844 0.351562 124.671875 C 5.808594 125.125 11.035156 125.796875 13.988281 125.800781 C 37.828125 126.082031 61.769531 126.261719 85.585938 126.242188 " fill-opacity="1" fill-rule="nonzero"/><path fill="#181818" d="M 89.375 243.628906 C 89.417969 243.359375 88.160156 243.105469 90.109375 242.957031 C 96.25 242.636719 101.199219 243.480469 107.339844 243.15625 C 107.484375 243.011719 107.632812 242.863281 107.78125 242.71875 C 112.542969 242.851562 117.5 243.039062 122.554688 243.183594 C 131.875 243.019531 141.140625 242.8125 150.371094 242.5625 C 150.128906 242.40625 150.011719 242.261719 150.929688 242.195312 C 154.765625 242.035156 160.085938 242.128906 165.59375 242.113281 C 166.410156 242.078125 167.226562 242.042969 168.023438 242.011719 C 168.648438 241.910156 168.808594 241.753906 168.910156 241.660156 C 171.398438 241.648438 173.613281 241.664062 175.667969 241.6875 C 202.703125 240.53125 230.152344 239.222656 259.90625 237.894531 C 266.195312 237.425781 272.488281 236.953125 278.550781 236.703125 C 287.53125 236.4375 299 236.59375 307.765625 236.542969 C 306.402344 235.023438 327.753906 234.035156 323.472656 232.527344 C 329.308594 232.496094 338.082031 232.453125 338.523438 232.011719 C 339.871094 230.695312 344.347656 229.140625 359.847656 228.183594 C 365.914062 227.933594 375.242188 228.378906 377.378906 228.089844 C 380.746094 227.636719 369.503906 227.257812 372.867188 226.804688 C 327.75 226.835938 284.316406 227.886719 238.894531 228.378906 C 223.441406 229.230469 119.164062 230.691406 92.375 230.691406 C 91.5625 230.707031 90.753906 230.71875 89.941406 230.738281 C 75.328125 230.816406 57.582031 231.128906 45.226562 231.851562 C 39.558594 232.277344 33.796875 232.78125 28.054688 233.265625 C 30.726562 233.492188 33.203125 233.714844 35.351562 233.945312 C 29.503906 233.976562 23.660156 234.007812 21.417969 234.308594 C 8.980469 235.105469 16.039062 235.792969 20.839844 236.785156 C 24.285156 237.203125 19.640625 237.957031 25.035156 238.363281 C 21.148438 238.386719 19.203125 238.394531 15.296875 238.417969 C 14.855469 238.855469 27.292969 238.0625 24.59375 238.804688 C 20.847656 238.675781 16.652344 238.992188 12.761719 239.011719 C 14.113281 239.589844 26.25 239.085938 25.65625 239.671875 C 23.554688 239.828125 14.707031 239.003906 13.964844 239.734375 C 13.816406 239.878906 17.714844 239.859375 19.660156 239.847656 C 7.675781 240.207031 1.078125 240.96875 12.03125 241.632812 C 8.230469 241.65625 2.859375 241.410156 -1.160156 241.554688 C -1.15625 241.558594 -1.140625 241.5625 -1.128906 241.566406 C 0.875 241.566406 4.335938 241.679688 6.1875 241.667969 C 3.910156 241.679688 1.625 241.691406 -0.652344 241.703125 C -0.292969 241.804688 0.113281 241.898438 0.546875 241.996094 C 2.25 242.0625 3.957031 242.117188 5.734375 242.109375 C 4.226562 242.117188 2.710938 242.121094 1.195312 242.132812 C 2.332031 242.355469 3.636719 242.566406 5.070312 242.769531 C 10.472656 243.171875 15.648438 243.800781 18.566406 243.785156 C 42.144531 243.863281 65.824219 243.84375 89.375 243.628906 " fill-opacity="1" fill-rule="nonzero"/><path fill="#181818" d="M 34.324219 170.058594 C 34.554688 169.914062 34.582031 169.480469 34.984375 169.847656 C 36.128906 171.078125 36.199219 172.671875 37.371094 173.890625 L 37.796875 173.734375 C 38.398438 174.886719 38.972656 176.132812 39.648438 177.347656 C 41.222656 179.335938 42.796875 181.304688 44.484375 183.171875 C 44.566406 183.019531 44.664062 182.90625 44.863281 183.066406 C 45.597656 183.8125 46.367188 185.046875 47.265625 186.238281 C 47.425781 186.394531 47.585938 186.550781 47.742188 186.703125 C 47.925781 186.773438 48.070312 186.710938 48.160156 186.671875 C 48.578125 187.203125 48.925781 187.691406 49.246094 188.152344 C 54.566406 193.265625 60.230469 198.164062 66.488281 203.21875 C 67.964844 204.144531 69.4375 205.0625 70.703125 206.085938 C 72.515625 207.671875 74.535156 209.988281 76.1875 211.65625 C 76.988281 210.300781 81.664062 213.601562 81.878906 211.683594 C 82.972656 212.773438 84.6875 214.328125 85.0625 214.085938 C 86.203125 213.339844 88.054688 213.039062 91.632812 215.058594 C 92.957031 215.933594 94.457031 217.921875 95.054688 218.078125 C 95.992188 218.320312 94.074219 216.054688 95.011719 216.296875 C 90.667969 212.386719 86.417969 208.554688 82.152344 204.710938 C 77.949219 200.796875 73.773438 196.832031 69.777344 192.507812 C 68.949219 191.90625 67.226562 190.175781 64.980469 187.875 C 62.78125 185.539062 60.105469 182.585938 57.496094 179.460938 C 52.230469 173.242188 47.265625 166.304688 45.386719 163.375 L 45.015625 162.867188 C 43.988281 161.273438 42.773438 159.554688 41.582031 157.910156 C 40.402344 156.257812 39.183594 154.71875 38.066406 153.519531 C 36.984375 152.453125 35.824219 151.40625 34.667969 150.355469 C 34.820312 151.078125 34.945312 151.761719 35.027344 152.371094 C 34.253906 151.046875 33.46875 149.734375 32.933594 149.367188 C 30.714844 146.890625 30.988281 148.871094 30.734375 150.503906 C 30.808594 151.527344 29.566406 150.828125 29.917969 152.292969 C 29.386719 151.402344 29.152344 150.941406 28.640625 150.035156 C 28.199219 150.160156 30.457031 152.667969 29.484375 152.417969 C 29.097656 151.480469 28.320312 150.644531 27.808594 149.738281 C 27.480469 150.355469 29.445312 152.957031 28.878906 153.109375 C 28.453125 152.707031 28.066406 150.191406 27.335938 150.386719 C 27.191406 150.429688 27.699219 151.339844 27.957031 151.792969 C 26.140625 149.144531 24.644531 147.949219 25.453125 150.890625 C 24.953125 149.996094 24.488281 148.597656 23.851562 147.714844 C 23.851562 147.714844 23.847656 147.722656 23.847656 147.730469 C 24.097656 148.203125 24.441406 149.082031 24.683594 149.519531 L 23.785156 147.910156 C 23.746094 148.042969 23.714844 148.1875 23.6875 148.335938 C 23.84375 148.777344 24.011719 149.214844 24.246094 149.628906 L 23.648438 148.5625 C 23.597656 148.941406 23.578125 149.359375 23.59375 149.800781 C 23.925781 151.292969 24.046875 152.851562 24.433594 153.542969 C 27.445312 159.199219 30.699219 164.773438 34.324219 170.058594 " fill-opacity="1" fill-rule="nonzero"/><path fill="#181818" d="M 43.769531 209.179688 C 43.613281 208.960938 43.164062 208.976562 43.523438 208.53125 C 44.746094 207.222656 46.421875 207.046875 47.648438 205.738281 L 47.476562 205.320312 C 48.671875 204.625 49.925781 203.902344 51.199219 203.164062 C 53.265625 201.441406 55.289062 199.703125 57.289062 197.941406 C 57.132812 197.855469 57.019531 197.765625 57.191406 197.550781 C 57.984375 196.777344 59.28125 195.945312 60.558594 194.996094 C 60.726562 194.835938 60.894531 194.667969 61.0625 194.507812 C 61.144531 194.320312 61.089844 194.171875 61.054688 194.082031 C 61.625 193.648438 62.152344 193.289062 62.644531 192.957031 C 68.222656 187.445312 73.90625 181.832031 80.046875 175.757812 C 81.242188 174.332031 82.4375 172.902344 83.707031 171.691406 C 85.660156 169.972656 88.457031 168.183594 90.492188 166.683594 C 89.25 165.703125 93.691406 161.359375 91.777344 160.875 C 93.132812 159.871094 95.179688 158.378906 95.019531 157.953125 C 94.546875 156.683594 94.667969 154.699219 97.765625 151.359375 C 99.054688 150.152344 101.535156 148.960938 101.871094 148.378906 C 102.394531 147.457031 99.503906 149.019531 100.027344 148.101562 C 89.332031 155.601562 79.695312 163.703125 69.304688 171.757812 C 67.746094 173.398438 61.058594 178.90625 54.007812 184.617188 C 46.953125 190.324219 39.542969 196.234375 36.417969 198.535156 L 35.882812 198.988281 C 32.53125 201.5625 28.597656 204.871094 26.179688 207.574219 C 25.132812 208.886719 24.109375 210.273438 23.085938 211.648438 C 23.847656 211.363281 24.558594 211.109375 25.199219 210.910156 C 23.863281 211.949219 22.527344 212.984375 22.199219 213.609375 C 19.816406 216.386719 21.886719 215.699219 23.617188 215.636719 C 24.679688 215.367188 24.074219 216.761719 25.578125 216.144531 C 24.691406 216.828125 24.246094 217.175781 23.359375 217.871094 C 23.535156 218.289062 25.910156 215.515625 25.753906 216.558594 C 24.804688 217.109375 24.03125 218.082031 23.144531 218.773438 C 23.820312 218.984375 26.308594 216.492188 26.539062 217.050781 C 26.152344 217.535156 23.589844 218.429688 23.875 219.125 C 23.9375 219.265625 24.824219 218.574219 25.265625 218.226562 C 22.71875 220.582031 21.679688 222.316406 24.625 220.941406 C 23.757812 221.613281 22.367188 222.351562 21.527344 223.160156 L 21.539062 223.164062 C 22.003906 222.816406 22.875 222.308594 23.292969 221.976562 L 21.742188 223.191406 C 21.882812 223.207031 22.039062 223.210938 22.199219 223.210938 C 22.636719 222.964844 23.0625 222.714844 23.46875 222.398438 L 22.433594 223.207031 C 22.835938 223.179688 23.273438 223.121094 23.726562 223.027344 C 25.230469 222.410156 26.816406 222 27.480469 221.484375 C 32.976562 217.476562 38.4375 213.378906 43.769531 209.179688 " fill-opacity="1" fill-rule="nonzero"/><path fill="#181818" d="M 166.070312 43.984375 C 166.300781 43.839844 166.328125 43.40625 166.730469 43.769531 C 167.871094 45.003906 167.941406 46.59375 169.117188 47.8125 L 169.539062 47.65625 C 170.144531 48.8125 170.71875 50.058594 171.390625 51.273438 C 172.96875 53.257812 174.542969 55.230469 176.226562 57.09375 C 176.3125 56.945312 176.40625 56.832031 176.609375 56.988281 C 177.34375 57.734375 178.109375 58.96875 179.011719 60.164062 C 179.171875 60.316406 179.332031 60.472656 179.488281 60.625 C 179.671875 60.695312 179.816406 60.632812 179.90625 60.59375 C 180.320312 61.125 180.671875 61.617188 180.992188 62.078125 C 186.3125 67.195312 191.976562 72.085938 198.234375 77.144531 C 199.710938 78.066406 201.179688 78.984375 202.449219 80.011719 C 204.257812 81.597656 206.28125 83.914062 207.9375 85.582031 C 208.734375 84.222656 213.40625 87.523438 213.621094 85.609375 C 214.71875 86.695312 216.429688 88.253906 216.804688 88.011719 C 217.949219 87.261719 219.800781 86.964844 223.378906 88.980469 C 224.703125 89.859375 226.207031 91.84375 226.800781 92 C 227.734375 92.246094 225.820312 89.976562 226.757812 90.21875 C 222.414062 86.308594 218.160156 82.476562 213.898438 78.636719 C 209.695312 74.722656 205.519531 70.753906 201.519531 66.433594 C 200.695312 65.835938 198.976562 64.097656 196.726562 61.796875 C 194.527344 59.460938 191.851562 56.511719 189.242188 53.382812 C 183.976562 47.164062 179.011719 40.230469 177.132812 37.304688 L 176.761719 36.789062 C 175.730469 35.195312 174.519531 33.480469 173.328125 31.835938 C 172.148438 30.183594 170.925781 28.640625 169.8125 27.441406 C 168.734375 26.382812 167.566406 25.332031 166.417969 24.277344 C 166.566406 25 166.691406 25.683594 166.773438 26.296875 C 165.996094 24.972656 165.214844 23.65625 164.675781 23.292969 C 162.460938 20.8125 162.730469 22.792969 162.480469 24.425781 C 162.554688 25.449219 161.308594 24.753906 161.664062 26.214844 C 161.132812 25.328125 160.898438 24.863281 160.386719 23.957031 C 159.945312 24.082031 162.203125 26.59375 161.230469 26.339844 C 160.847656 25.402344 160.066406 24.566406 159.554688 23.664062 C 159.222656 24.277344 161.1875 26.882812 160.628906 27.035156 C 160.199219 26.636719 159.808594 24.113281 159.082031 24.3125 C 158.9375 24.351562 159.445312 25.261719 159.703125 25.71875 C 157.890625 23.066406 156.386719 21.878906 157.199219 24.816406 C 156.699219 23.921875 156.230469 22.523438 155.597656 21.636719 C 155.597656 21.636719 155.59375 21.648438 155.589844 21.652344 C 155.84375 22.132812 156.1875 23.007812 156.429688 23.441406 L 155.53125 21.832031 C 155.488281 21.96875 155.457031 22.109375 155.429688 22.261719 C 155.585938 22.703125 155.761719 23.136719 155.992188 23.554688 L 155.394531 22.484375 C 155.34375 22.867188 155.328125 23.285156 155.335938 23.726562 C 155.671875 25.214844 155.792969 26.773438 156.179688 27.46875 C 159.1875 33.125 162.445312 38.699219 166.070312 43.984375 " fill-opacity="1" fill-rule="nonzero"/><path fill="#181818" d="M 175.511719 83.105469 C 175.359375 82.886719 174.90625 82.902344 175.265625 82.453125 C 176.492188 81.144531 178.167969 80.96875 179.394531 79.660156 L 179.222656 79.242188 C 180.414062 78.546875 181.671875 77.824219 182.945312 77.085938 C 185.007812 75.371094 187.035156 73.625 189.035156 71.863281 C 188.882812 71.78125 188.761719 71.6875 188.9375 71.480469 C 189.730469 70.703125 191.027344 69.871094 192.304688 68.925781 C 192.472656 68.757812 192.640625 68.59375 192.804688 68.429688 C 192.890625 68.246094 192.832031 68.097656 192.796875 68.003906 C 193.371094 67.574219 193.898438 67.210938 194.394531 66.882812 C 199.96875 61.371094 205.648438 55.753906 211.796875 49.683594 C 212.984375 48.257812 214.179688 46.832031 215.453125 45.613281 C 217.40625 43.898438 220.203125 42.109375 222.238281 40.609375 C 220.996094 39.625 225.441406 35.285156 223.519531 34.796875 C 224.878906 33.796875 226.925781 32.304688 226.765625 31.878906 C 226.289062 30.609375 226.410156 28.621094 229.511719 25.285156 C 230.800781 24.078125 233.28125 22.886719 233.617188 22.300781 C 234.140625 21.382812 231.246094 22.945312 231.769531 22.023438 C 221.078125 29.527344 211.4375 37.628906 201.050781 45.679688 C 199.492188 47.320312 192.800781 52.832031 185.753906 58.542969 C 178.699219 64.246094 171.289062 70.15625 168.164062 72.457031 L 167.628906 72.910156 C 164.273438 75.488281 160.34375 78.792969 157.921875 81.496094 C 156.875 82.808594 155.855469 84.199219 154.832031 85.574219 C 155.589844 85.285156 156.304688 85.03125 156.941406 84.835938 C 155.609375 85.871094 154.273438 86.90625 153.945312 87.53125 C 151.566406 90.3125 153.632812 89.621094 155.363281 89.5625 C 156.421875 89.292969 155.820312 90.683594 157.324219 90.066406 C 156.441406 90.757812 155.996094 91.101562 155.105469 91.792969 C 155.277344 92.210938 157.652344 89.4375 157.496094 90.484375 C 156.550781 91.035156 155.777344 92.007812 154.894531 92.699219 C 155.566406 92.910156 158.054688 90.417969 158.285156 90.976562 C 157.894531 91.460938 155.335938 92.351562 155.625 93.050781 C 155.679688 93.191406 156.566406 92.496094 157.011719 92.152344 C 154.46875 94.507812 153.421875 96.242188 156.371094 94.863281 C 155.507812 95.542969 154.109375 96.28125 153.269531 97.085938 L 153.289062 97.085938 C 153.753906 96.746094 154.621094 96.230469 155.039062 95.902344 L 153.484375 97.117188 C 153.628906 97.128906 153.785156 97.132812 153.945312 97.132812 C 154.378906 96.894531 154.808594 96.636719 155.210938 96.320312 L 154.179688 97.128906 C 154.582031 97.105469 155.019531 97.046875 155.472656 96.949219 C 156.972656 96.332031 158.5625 95.921875 159.226562 95.40625 C 164.722656 91.398438 170.183594 87.304688 175.511719 83.105469 " fill-opacity="1" fill-rule="nonzero"/><path fill="#181818" d="M 291.183594 156.789062 C 291.410156 156.644531 291.441406 156.210938 291.839844 156.574219 C 292.984375 157.808594 293.050781 159.402344 294.226562 160.617188 L 294.648438 160.460938 C 295.253906 161.617188 295.832031 162.863281 296.503906 164.078125 C 298.078125 166.0625 299.65625 168.03125 301.335938 169.898438 C 301.425781 169.75 301.515625 169.632812 301.71875 169.792969 C 302.457031 170.539062 303.21875 171.773438 304.121094 172.96875 C 304.28125 173.121094 304.441406 173.277344 304.597656 173.429688 C 304.78125 173.503906 304.925781 173.4375 305.015625 173.402344 C 305.429688 173.933594 305.785156 174.421875 306.101562 174.878906 C 311.421875 179.996094 317.085938 184.890625 323.347656 189.949219 C 324.820312 190.875 326.289062 191.789062 327.558594 192.816406 C 329.367188 194.402344 331.394531 196.71875 333.046875 198.382812 C 333.84375 197.027344 338.519531 200.328125 338.730469 198.414062 C 339.828125 199.5 341.539062 201.058594 341.917969 200.816406 C 343.0625 200.066406 344.910156 199.769531 348.492188 201.789062 C 349.8125 202.664062 351.316406 204.648438 351.910156 204.804688 C 352.84375 205.050781 350.933594 202.78125 351.871094 203.023438 C 347.523438 199.113281 343.269531 195.28125 339.007812 191.441406 C 334.808594 187.523438 330.628906 183.558594 326.632812 179.238281 C 325.804688 178.640625 324.085938 176.902344 321.839844 174.601562 C 319.636719 172.265625 316.964844 169.316406 314.351562 166.1875 C 309.085938 159.96875 304.121094 153.035156 302.246094 150.109375 L 301.871094 149.59375 C 300.839844 148 299.628906 146.285156 298.4375 144.640625 C 297.257812 142.988281 296.039062 141.445312 294.921875 140.246094 C 293.84375 139.1875 292.675781 138.140625 291.527344 137.082031 C 291.675781 137.804688 291.804688 138.488281 291.886719 139.097656 C 291.109375 137.777344 290.328125 136.460938 289.789062 136.097656 C 287.570312 133.617188 287.839844 135.597656 287.589844 137.230469 C 287.667969 138.253906 286.421875 137.554688 286.773438 139.023438 C 286.242188 138.132812 286.007812 137.667969 285.496094 136.761719 C 285.054688 136.886719 287.3125 139.402344 286.339844 139.144531 C 285.957031 138.210938 285.175781 137.371094 284.664062 136.46875 C 284.335938 137.082031 286.296875 139.683594 285.738281 139.835938 C 285.3125 139.4375 284.917969 136.917969 284.195312 137.117188 C 284.046875 137.15625 284.558594 138.066406 284.8125 138.523438 C 283 135.871094 281.496094 134.683594 282.308594 137.621094 C 281.808594 136.726562 281.339844 135.328125 280.710938 134.441406 C 280.710938 134.441406 280.703125 134.453125 280.703125 134.457031 C 280.953125 134.933594 281.296875 135.8125 281.539062 136.246094 L 280.640625 134.636719 C 280.601562 134.773438 280.570312 134.917969 280.539062 135.066406 C 280.695312 135.507812 280.871094 135.941406 281.101562 136.359375 L 280.503906 135.289062 C 280.457031 135.671875 280.4375 136.089844 280.445312 136.53125 C 280.78125 138.019531 280.90625 139.582031 281.289062 140.269531 C 284.300781 145.929688 287.554688 151.503906 291.183594 156.789062 " fill-opacity="1" fill-rule="nonzero"/><path fill="#181818" d="M 300.625 195.910156 C 300.46875 195.691406 300.015625 195.707031 300.375 195.257812 C 301.601562 193.953125 303.277344 193.773438 304.503906 192.464844 L 304.332031 192.046875 C 305.527344 191.355469 306.785156 190.628906 308.054688 189.890625 C 310.117188 188.171875 312.144531 186.429688 314.144531 184.667969 C 313.992188 184.589844 313.871094 184.492188 314.046875 184.285156 C 314.84375 183.507812 316.140625 182.675781 317.414062 181.726562 C 317.582031 181.5625 317.753906 181.398438 317.917969 181.234375 C 318 181.046875 317.941406 180.902344 317.90625 180.808594 C 318.480469 180.378906 319.007812 180.015625 319.503906 179.6875 C 325.082031 174.175781 330.761719 168.558594 336.90625 162.488281 C 338.097656 161.058594 339.289062 159.636719 340.566406 158.417969 C 342.515625 156.703125 345.316406 154.914062 347.351562 153.414062 C 346.105469 152.429688 350.550781 148.089844 348.628906 147.601562 C 349.988281 146.601562 352.039062 145.109375 351.878906 144.683594 C 351.398438 143.414062 351.519531 141.425781 354.621094 138.089844 C 355.910156 136.882812 358.390625 135.691406 358.726562 135.105469 C 359.25 134.1875 356.355469 135.75 356.882812 134.828125 C 346.1875 142.332031 336.550781 150.429688 326.164062 158.484375 C 324.601562 160.125 317.914062 165.636719 310.863281 171.347656 C 303.808594 177.050781 296.402344 182.960938 293.277344 185.261719 L 292.738281 185.71875 C 289.382812 188.292969 285.457031 191.597656 283.035156 194.300781 C 281.984375 195.613281 280.964844 197.003906 279.941406 198.378906 C 280.699219 198.089844 281.417969 197.835938 282.054688 197.640625 C 280.722656 198.679688 279.386719 199.710938 279.058594 200.339844 C 276.675781 203.117188 278.742188 202.425781 280.476562 202.367188 C 281.535156 202.097656 280.933594 203.488281 282.433594 202.871094 C 281.550781 203.5625 281.105469 203.90625 280.214844 204.597656 C 280.386719 205.015625 282.765625 202.242188 282.605469 203.289062 C 281.660156 203.839844 280.890625 204.8125 280.003906 205.503906 C 280.675781 205.714844 283.164062 203.222656 283.398438 203.78125 C 283.007812 204.265625 280.445312 205.15625 280.734375 205.855469 C 280.792969 205.996094 281.675781 205.304688 282.121094 204.957031 C 279.578125 207.308594 278.535156 209.046875 281.480469 207.667969 C 280.617188 208.34375 279.21875 209.085938 278.382812 209.890625 L 278.398438 209.894531 C 278.863281 209.546875 279.730469 209.035156 280.152344 208.707031 L 278.59375 209.917969 C 278.742188 209.933594 278.894531 209.9375 279.054688 209.9375 C 279.488281 209.699219 279.921875 209.441406 280.320312 209.125 L 279.289062 209.933594 C 279.691406 209.910156 280.128906 209.851562 280.582031 209.753906 C 282.085938 209.136719 283.675781 208.726562 284.335938 208.210938 C 289.832031 204.203125 295.292969 200.109375 300.625 195.910156 " fill-opacity="1" fill-rule="nonzero"/><path fill="#181818" d="M 59.5 24.585938 C 59.585938 24.328125 59.070312 23.941406 60 24.019531 C 61.429688 24.316406 62.660156 24.886719 63.773438 25.632812 C 64.914062 26.320312 65.941406 27.160156 67.226562 27.867188 C 67.367188 27.789062 67.515625 27.710938 67.65625 27.636719 C 69.402344 29.125 71.035156 31.046875 72.449219 33.144531 C 73.929688 34.945312 75.238281 36.929688 76.378906 39.035156 C 77.511719 41.140625 78.417969 43.386719 79.164062 45.683594 C 79.285156 45.519531 79.410156 45.417969 79.59375 45.871094 C 80.273438 47.789062 80.699219 50.601562 80.847656 53.488281 C 80.929688 53.910156 80.949219 54.335938 80.992188 54.757812 C 81.09375 55.082031 81.25 55.164062 81.34375 55.214844 C 81.351562 55.542969 81.355469 55.863281 81.363281 56.175781 C 81.34375 56.488281 81.328125 56.789062 81.308594 57.085938 C 81.269531 57.675781 81.257812 58.238281 81.183594 58.773438 C 81.117188 65.828125 78.949219 73.183594 74.585938 79.359375 C 72.449219 82.472656 69.683594 85.167969 66.496094 87.320312 C 63.273438 89.382812 59.566406 90.804688 55.503906 91.148438 C 52.09375 91.699219 48.457031 91.425781 45.15625 90.394531 C 42.726562 89.589844 40.113281 88.1875 37.832031 86.394531 C 35.542969 84.609375 33.554688 82.492188 32.089844 80.480469 C 31.996094 80.671875 31.789062 80.695312 31.484375 80.597656 C 31.199219 80.492188 30.839844 80.242188 30.417969 79.90625 C 29.546875 79.261719 28.589844 78.160156 27.636719 77.078125 C 25.835938 74.871094 24.390625 72.523438 24.148438 74.058594 C 23.445312 72.34375 22.796875 70.113281 22.3125 68.289062 C 21.855469 66.460938 21.511719 65.035156 21.277344 64.925781 C 20.601562 64.597656 19.710938 63.773438 18.902344 61.683594 C 18.703125 61.160156 18.507812 60.558594 18.3125 59.863281 C 18.132812 59.167969 18 58.378906 17.855469 57.488281 C 17.585938 55.707031 17.480469 53.503906 17.648438 50.816406 C 17.777344 49.769531 17.988281 48.589844 18.269531 47.394531 C 18.613281 46.210938 18.894531 44.988281 19.34375 43.890625 C 20.101562 41.664062 21.042969 39.863281 21.195312 39.105469 C 21.320312 38.597656 21.199219 38.589844 20.964844 38.835938 C 20.730469 39.082031 20.339844 39.714844 19.964844 40.316406 C 19.179688 41.519531 18.542969 42.800781 18.730469 41.578125 C 15.777344 49.238281 15.148438 57.351562 16.257812 65.136719 C 17.402344 72.90625 20.351562 80.574219 25.59375 86.984375 C 30.800781 93.34375 38.082031 98.019531 46.210938 99.96875 C 50.277344 100.941406 54.554688 101.203125 58.789062 100.6875 C 63.023438 100.183594 67.234375 98.828125 70.976562 96.8125 C 72.214844 96.066406 74.304688 94.734375 76.753906 92.683594 C 79.207031 90.640625 81.953125 87.816406 84.453125 84.222656 C 86.960938 80.644531 89.21875 76.296875 90.824219 71.421875 C 92.394531 66.550781 93.273438 61.089844 93.15625 55.652344 C 92.988281 44.742188 89.074219 34 83.207031 26.269531 C 80.316406 22.378906 76.917969 19.273438 73.601562 17.042969 C 70.300781 14.8125 67.183594 13.5 64.84375 12.699219 C 64.265625 12.535156 63.6875 12.367188 63.113281 12.199219 C 60.488281 11.503906 57.609375 11.078125 54.625 11.109375 C 51.65625 11.136719 48.582031 11.613281 45.71875 12.652344 C 42.855469 13.65625 40.214844 15.1875 38.046875 16.890625 C 36.03125 18.515625 34.339844 20.253906 32.941406 21.90625 C 30.492188 25.03125 28.578125 28.488281 27.050781 31.953125 C 28.15625 30.566406 29.246094 29.335938 30.257812 28.332031 C 28.003906 31.441406 26.257812 34.796875 25.878906 36.199219 C 24.449219 39.921875 24.542969 40.847656 25.085938 40.539062 C 25.648438 40.230469 26.8125 38.726562 27.925781 37.628906 C 29.292969 35.953125 28.621094 38.78125 30.53125 36.105469 C 29.425781 38.164062 28.90625 39.21875 27.945312 41.367188 C 28.082031 41.570312 28.753906 39.898438 29.445312 38.414062 C 30.148438 36.9375 30.855469 35.664062 30.789062 36.542969 C 29.59375 38.449219 28.777344 40.851562 27.867188 42.996094 C 28.292969 42.734375 29.121094 40.894531 29.972656 39.242188 C 30.820312 37.585938 31.6875 36.113281 31.859375 36.414062 C 31.617188 36.980469 30.699219 38.320312 29.945312 39.648438 C 29.171875 40.964844 28.582031 42.277344 28.820312 42.621094 C 28.921875 42.757812 29.847656 40.640625 30.359375 39.613281 C 28.957031 42.863281 28.199219 45.546875 28.105469 46.640625 C 28.023438 47.742188 28.566406 47.234375 30.121094 44.40625 C 29.253906 46.441406 27.886719 49.332031 27.226562 51.640625 C 27.234375 51.640625 27.234375 51.632812 27.242188 51.625 C 27.644531 50.5 28.464844 48.613281 28.847656 47.589844 C 28.378906 48.847656 27.914062 50.121094 27.472656 51.40625 C 27.636719 51.238281 27.808594 51.039062 27.988281 50.832031 C 28.390625 49.898438 28.804688 48.976562 29.167969 47.992188 C 28.859375 48.832031 28.542969 49.660156 28.25 50.511719 C 28.683594 49.953125 29.160156 49.304688 29.644531 48.589844 C 31.152344 45.757812 32.933594 43.328125 33.636719 41.871094 C 36.546875 35.953125 40.191406 30.808594 44.875 27.316406 C 45.160156 27.109375 45.464844 26.84375 45.730469 26.683594 L 46.523438 26.183594 C 46.777344 26 47.054688 25.863281 47.335938 25.730469 L 48.160156 25.308594 C 49.320312 24.867188 50.476562 24.414062 51.734375 24.238281 C 54.207031 23.753906 56.886719 23.953125 59.5 24.585938 " fill-opacity="1" fill-rule="nonzero"/><path fill="#181818" d="M 195.136719 146.683594 C 195.210938 146.421875 194.679688 146.027344 195.605469 146.109375 C 197.070312 146.265625 198.292969 146.910156 199.457031 147.539062 C 200.605469 148.246094 201.710938 148.960938 203 149.679688 L 203.417969 149.4375 C 205.234375 150.875 206.902344 152.722656 208.390625 154.78125 C 211.5 158.277344 213.828125 162.632812 215.441406 167.210938 C 215.542969 167.042969 215.6875 166.9375 215.871094 167.390625 C 216.570312 169.316406 217.042969 172.132812 217.261719 175.039062 C 217.324219 175.464844 217.402344 175.894531 217.453125 176.3125 C 217.558594 176.636719 217.710938 176.71875 217.804688 176.765625 C 217.8125 177.429688 217.835938 178.058594 217.816406 178.652344 C 217.78125 179.25 217.742188 179.8125 217.703125 180.355469 C 217.78125 183.941406 217.242188 187.53125 216.203125 191.074219 C 215.164062 194.613281 213.582031 198.066406 211.425781 201.191406 C 207.210938 207.488281 200.578125 212.5625 192.410156 213.414062 C 190.699219 213.742188 188.933594 213.769531 187.164062 213.71875 C 185.410156 213.585938 183.648438 213.335938 181.988281 212.808594 C 179.53125 212.035156 176.886719 210.652344 174.566406 208.875 C 172.234375 207.109375 170.226562 204.980469 168.738281 202.96875 C 168.566406 203.347656 167.871094 203.097656 167.050781 202.40625 C 166.640625 202.066406 166.144531 201.652344 165.667969 201.160156 C 165.210938 200.648438 164.722656 200.105469 164.242188 199.574219 C 162.410156 197.363281 160.945312 195.003906 160.71875 196.554688 C 160.546875 196.117188 160.355469 195.664062 160.183594 195.179688 C 160.023438 194.695312 159.863281 194.191406 159.699219 193.691406 C 159.339844 192.703125 159.109375 191.667969 158.84375 190.753906 C 158.355469 188.917969 158.042969 187.480469 157.785156 187.371094 C 157.105469 187.042969 156.226562 186.21875 155.394531 184.117188 C 155.199219 183.589844 155 182.984375 154.808594 182.28125 C 154.609375 181.585938 154.488281 180.792969 154.339844 179.894531 C 154.0625 178.101562 153.953125 175.886719 154.121094 173.179688 C 154.242188 172.128906 154.464844 170.9375 154.738281 169.734375 C 154.902344 169.140625 155.074219 168.535156 155.242188 167.9375 C 155.40625 167.34375 155.597656 166.761719 155.816406 166.210938 C 156.582031 163.964844 157.527344 162.152344 157.683594 161.390625 C 157.804688 160.878906 157.6875 160.871094 157.449219 161.121094 C 157.210938 161.367188 156.824219 162.007812 156.445312 162.605469 C 155.65625 163.820312 155.019531 165.113281 155.210938 163.882812 C 152.246094 171.59375 151.613281 179.761719 152.765625 187.597656 C 153.351562 191.519531 154.40625 195.386719 155.972656 199.089844 C 157.535156 202.792969 159.636719 206.363281 162.296875 209.542969 C 167.597656 215.886719 174.972656 220.554688 183.207031 222.363281 C 187.3125 223.273438 191.621094 223.488281 195.878906 222.894531 C 200.136719 222.316406 204.351562 220.867188 208.070312 218.78125 C 208.667969 218.375 209.484375 217.828125 210.488281 217.152344 C 211.421875 216.40625 212.613281 215.601562 213.78125 214.511719 C 216.199219 212.40625 218.917969 209.527344 221.375 205.878906 C 223.820312 202.234375 226.085938 197.847656 227.566406 192.890625 C 229.0625 187.957031 229.859375 182.449219 229.609375 176.980469 C 229.4375 171.507812 228.28125 166.074219 226.464844 161.054688 C 224.59375 156.046875 222.03125 151.445312 218.972656 147.621094 C 215.921875 143.808594 212.402344 140.726562 208.988281 138.601562 C 205.570312 136.503906 202.394531 135.265625 199.988281 134.578125 C 199.410156 134.394531 198.804688 134.304688 198.214844 134.164062 C 195.542969 133.566406 192.617188 133.230469 189.605469 133.429688 C 186.601562 133.625 183.527344 134.3125 180.703125 135.492188 C 179.277344 136.054688 177.953125 136.8125 176.683594 137.582031 C 176.078125 138.007812 175.476562 138.425781 174.878906 138.847656 C 174.320312 139.257812 173.894531 139.621094 173.417969 140.015625 C 171.566406 141.554688 169.910156 143.121094 168.5 144.628906 C 165.980469 147.464844 163.640625 150.605469 161.746094 154.125 C 163 152.742188 164.238281 151.617188 165.347656 150.710938 C 164.074219 152.152344 162.875 153.703125 161.972656 155.128906 C 161.070312 156.554688 160.457031 157.832031 160.246094 158.605469 C 159.4375 160.640625 159.253906 162.046875 159.230469 162.785156 C 159.238281 163.550781 159.40625 163.671875 159.667969 163.441406 C 160.148438 162.953125 161.171875 161.167969 162.300781 160.027344 C 162.988281 159.144531 163.160156 159.457031 163.40625 159.621094 C 163.652344 159.792969 163.933594 159.792969 164.941406 158.527344 C 164.34375 159.515625 163.9375 160.28125 163.589844 161.070312 C 163.222656 161.851562 162.929688 162.660156 162.621094 163.753906 C 162.78125 163.925781 163.171875 162.242188 163.835938 160.78125 C 164.484375 159.320312 165.292969 158.113281 165.175781 158.972656 C 163.933594 160.792969 163.1875 163.164062 162.902344 165.277344 C 163.21875 164.945312 163.613281 163.164062 164.398438 161.574219 C 165.136719 159.980469 166.09375 158.605469 166.246094 158.902344 C 165.976562 159.441406 165.039062 160.683594 164.390625 161.957031 C 163.707031 163.226562 163.417969 164.511719 163.722656 164.765625 C 163.792969 164.816406 163.929688 164.347656 164.113281 163.742188 C 164.3125 163.140625 164.585938 162.40625 164.804688 161.921875 C 164.207031 163.445312 163.992188 164.828125 163.996094 165.878906 C 163.992188 166.941406 164.238281 167.664062 164.425781 168.039062 C 164.652344 168.410156 164.824219 168.433594 164.945312 168.105469 C 165.066406 167.773438 165.148438 167.085938 165.449219 165.964844 C 165.347656 166.765625 165.292969 167.679688 165.460938 168.582031 C 165.613281 169.480469 166.007812 170.375 166.542969 171.0625 C 166.546875 171.058594 166.542969 171.050781 166.546875 171.046875 C 166.441406 170.863281 166.316406 170.644531 166.179688 170.40625 C 166.085938 170.164062 165.964844 169.910156 165.871094 169.660156 C 165.707031 169.144531 165.589844 168.648438 165.527344 168.296875 C 165.695312 169.160156 166.035156 169.988281 166.558594 170.796875 C 166.566406 170.613281 166.5625 170.417969 166.550781 170.222656 C 166.308594 169.589844 166.128906 168.988281 165.980469 168.367188 C 166.128906 168.894531 166.273438 169.417969 166.5625 169.929688 C 166.574219 169.4375 166.582031 168.929688 166.675781 168.425781 C 166.625 166.640625 167.792969 165.011719 168.242188 163.882812 C 169.175781 161.621094 170.996094 159.144531 173.109375 156.855469 C 175.238281 154.550781 177.71875 152.375 180.324219 150.371094 L 181.308594 149.632812 L 181.808594 149.273438 C 181.980469 149.144531 182.140625 149.027344 182.261719 148.960938 C 182.808594 148.644531 183.304688 148.25 183.878906 148.007812 C 184.960938 147.382812 186.171875 147.039062 187.375 146.6875 C 189.835938 146.167969 192.488281 146.09375 195.136719 146.683594 " fill-opacity="1" fill-rule="nonzero"/><path fill="#181818" d="M 334.363281 278.632812 C 334.453125 278.378906 333.9375 277.988281 334.863281 278.066406 C 336.296875 278.363281 337.523438 278.9375 338.636719 279.679688 C 339.78125 280.367188 340.804688 281.203125 342.089844 281.914062 C 342.230469 281.835938 342.378906 281.757812 342.519531 281.6875 C 344.265625 283.175781 345.898438 285.09375 347.3125 287.191406 C 348.792969 288.996094 350.105469 290.980469 351.242188 293.078125 C 352.378906 295.191406 353.28125 297.4375 354.027344 299.734375 C 354.148438 299.566406 354.273438 299.464844 354.457031 299.921875 C 355.136719 301.835938 355.566406 304.648438 355.710938 307.535156 C 355.792969 307.960938 355.8125 308.386719 355.855469 308.804688 C 355.957031 309.128906 356.113281 309.210938 356.207031 309.261719 C 356.214844 309.589844 356.222656 309.914062 356.226562 310.226562 C 356.207031 310.535156 356.195312 310.839844 356.175781 311.132812 C 356.132812 311.722656 356.121094 312.289062 356.046875 312.820312 C 355.980469 319.875 353.8125 327.230469 349.453125 333.410156 C 347.3125 336.519531 344.546875 339.214844 341.359375 341.371094 C 338.136719 343.433594 334.429688 344.851562 330.367188 345.195312 C 326.957031 345.746094 323.320312 345.476562 320.019531 344.441406 C 317.589844 343.636719 314.980469 342.234375 312.695312 340.445312 C 310.40625 338.65625 308.421875 336.539062 306.953125 334.527344 C 306.859375 334.71875 306.652344 334.746094 306.351562 334.644531 C 306.0625 334.535156 305.707031 334.289062 305.28125 333.953125 C 304.414062 333.308594 303.457031 332.207031 302.503906 331.125 C 300.699219 328.917969 299.253906 326.570312 299.011719 328.105469 C 298.308594 326.390625 297.664062 324.164062 297.175781 322.339844 C 296.71875 320.507812 296.375 319.082031 296.144531 318.972656 C 295.464844 318.644531 294.578125 317.820312 293.765625 315.730469 C 293.566406 315.207031 293.375 314.605469 293.175781 313.910156 C 292.996094 313.21875 292.863281 312.425781 292.71875 311.535156 C 292.449219 309.753906 292.34375 307.554688 292.511719 304.859375 C 292.644531 303.816406 292.855469 302.636719 293.132812 301.441406 C 293.476562 300.257812 293.757812 299.035156 294.207031 297.941406 C 294.96875 295.710938 295.910156 293.910156 296.0625 293.15625 C 296.183594 292.644531 296.066406 292.636719 295.828125 292.882812 C 295.59375 293.132812 295.207031 293.765625 294.832031 294.363281 C 294.042969 295.566406 293.40625 296.847656 293.597656 295.625 C 290.640625 303.285156 290.011719 311.398438 291.121094 319.183594 C 292.265625 326.953125 295.214844 334.621094 300.457031 341.035156 C 305.664062 347.394531 312.945312 352.066406 321.078125 354.015625 C 325.140625 354.984375 329.417969 355.25 333.652344 354.738281 C 337.886719 354.230469 342.097656 352.875 345.839844 350.863281 C 347.078125 350.113281 349.167969 348.78125 351.617188 346.734375 C 354.070312 344.6875 356.820312 341.863281 359.316406 338.269531 C 361.824219 334.6875 364.085938 330.347656 365.6875 325.472656 C 367.261719 320.597656 368.136719 315.136719 368.019531 309.703125 C 367.851562 298.792969 363.941406 288.046875 358.074219 280.320312 C 355.183594 276.421875 351.78125 273.324219 348.464844 271.085938 C 345.164062 268.859375 342.046875 267.550781 339.707031 266.75 C 339.128906 266.582031 338.550781 266.414062 337.976562 266.246094 C 335.351562 265.550781 332.472656 265.125 329.492188 265.15625 C 326.519531 265.183594 323.445312 265.660156 320.585938 266.699219 C 317.730469 267.699219 315.070312 269.25 312.921875 270.925781 C 311.121094 272.371094 309.398438 273.882812 307.902344 275.421875 C 305.183594 278.296875 302.84375 281.988281 301.390625 285.542969 C 301.917969 284.824219 302.519531 284.148438 303.042969 283.515625 C 303.625 282.898438 304.15625 282.3125 304.699219 281.808594 C 302.265625 284.996094 300.640625 288.449219 300.277344 289.839844 C 299.589844 291.707031 299.300781 292.863281 299.21875 293.515625 C 299.140625 294.171875 299.28125 294.320312 299.566406 294.167969 C 300.136719 293.863281 301.253906 292.34375 302.355469 291.226562 C 303.660156 289.515625 303.074219 292.363281 304.925781 289.652344 C 304.390625 290.6875 304 291.472656 303.636719 292.273438 C 303.253906 293.070312 302.902344 293.878906 302.433594 294.964844 C 302.585938 295.175781 303.214844 293.472656 303.890625 291.984375 C 304.550781 290.484375 305.246094 289.207031 305.195312 290.085938 C 304.023438 291.996094 303.273438 294.441406 302.371094 296.601562 C 302.792969 296.335938 303.613281 294.476562 304.433594 292.800781 C 305.238281 291.109375 306.089844 289.652344 306.253906 289.929688 C 306.039062 290.515625 305.136719 291.851562 304.40625 293.203125 C 303.671875 294.554688 303.074219 295.871094 303.320312 296.214844 C 303.421875 296.351562 304.332031 294.203125 304.828125 293.164062 C 303.480469 296.460938 302.695312 299.171875 302.589844 300.28125 C 302.488281 301.398438 303.046875 300.886719 304.625 298.011719 C 303.753906 300.082031 302.332031 303.015625 301.578125 305.324219 C 301.582031 305.320312 301.589844 305.316406 301.59375 305.3125 C 302.042969 304.1875 302.902344 302.273438 303.320312 301.25 C 302.824219 302.527344 302.324219 303.8125 301.832031 305.09375 C 302.003906 304.925781 302.183594 304.734375 302.367188 304.523438 C 302.808594 303.59375 303.230469 302.644531 303.625 301.65625 C 303.300781 302.507812 302.96875 303.355469 302.640625 304.210938 C 303.097656 303.652344 303.582031 302.988281 304.089844 302.269531 C 305.671875 299.394531 307.460938 296.875 308.136719 295.359375 C 309.585938 292.335938 311.074219 289.5625 312.851562 287.441406 C 314.574219 285.289062 316.851562 283.441406 319.613281 281.429688 L 320.125 281.058594 C 320.292969 280.9375 320.480469 280.792969 320.597656 280.730469 L 321.386719 280.230469 C 321.640625 280.046875 321.921875 279.910156 322.203125 279.78125 L 323.027344 279.351562 C 324.183594 278.914062 325.339844 278.457031 326.601562 278.289062 C 329.070312 277.804688 331.75 278 334.363281 278.632812 " fill-opacity="1" fill-rule="nonzero"/></svg>